<svg width="100%" height="100%" xmlns="http://www.w3.org/2000/svg" viewBox="0 0 300 121.87"><defs><style>.cls-1{fill:#00524c;}.cls-2{fill:#b8b8bd;}</style></defs><title>Asset 1</title><g id="Layer_2" data-name="Layer 2"><g id="Layer_1-2" data-name="Layer 1"><polygon class="cls-1" points="59.9 103.28 62.38 103.28 62.38 115.68 69.16 115.68 69.16 117.62 59.9 117.62 59.9 103.28"/><path class="cls-1" d="M79.49,112.17v1.11H72.81c.06,1.37.18,2.62,2,2.62a7.1,7.1,0,0,0,3.32-1.06l.74,1.61a8.91,8.91,0,0,1-4.07,1.27c-3.47,0-4.52-1.72-4.52-5.29s1.19-5.16,4.57-5.16c3.17,0,4.59,1.45,4.59,4.9m-6.68-.32H77c0-2.1-.65-2.75-2.1-2.75s-2.1.61-2.12,2.75"/><path class="cls-1" d="M87.49,116.89a9.7,9.7,0,0,1-2.62.85c-2.4,0-3.77-1.25-3.77-3.29,0-1.67.92-3,3.51-3h2.62v-1c0-.89-.43-1.37-1.63-1.37a9,9,0,0,0-3.17.84l-.65-1.63a11.54,11.54,0,0,1,3.94-1c2.52,0,3.89.73,3.89,3.35v4.9l.71,1.77-2.06.47Zm-2.48-4c-1.39,0-1.72.77-1.72,1.53S83.7,116,85.23,116a4.56,4.56,0,0,0,2-.57V112.9Z"/><path class="cls-1" d="M98.76,116.89a10.63,10.63,0,0,1-2.74.85c-2.46,0-3.77-2.08-3.82-4.38,0-.52,0-1.39,0-2.78a3.07,3.07,0,0,1,3.2-3.29,13.23,13.23,0,0,1,3.07.73v-4.74h2.38v12.24l.7,1.76-2,.48Zm-.26-7.24a10,10,0,0,0-2.26-.56c-1.17,0-1.51.9-1.55,2.17,0,.28,0,.77,0,1.4,0,2.48.38,3.3,2,3.3a4.53,4.53,0,0,0,1.8-.54Z"/><path class="cls-1" d="M103.94,103.28h2.38v2h-2.38Zm0,4.13h2.38v10.21h-2.38Z"/><path class="cls-1" d="M115.42,111.18c0-1-.24-2.09-1.41-2.09a7.28,7.28,0,0,0-2.45.6v7.93h-2.37v-8.25l-.53-1.58,2.06-.56.62.93a13.58,13.58,0,0,1,3.55-.87c1.9,0,2.91,1.29,2.91,3.55v6.78h-2.38Z"/><path class="cls-1" d="M127.27,107.23l2.06.56-.52,1.58v7c0,3.45-.87,5.5-4.52,5.5a10,10,0,0,1-4.24-1.27l.75-1.61a7.42,7.42,0,0,0,3.41,1.07c1.86,0,2.18-1.51,2.2-3.11a8.66,8.66,0,0,1-2.48.79c-2.67,0-3.81-2-3.81-4.3,0-.52,0-1.47,0-2.86,0-1.88.93-3.29,3-3.29a14.59,14.59,0,0,1,3.57.84Zm-.84,2.42a10,10,0,0,0-2.26-.56c-1.17,0-1.53.48-1.57,2.17,0,.28,0,.77,0,1.4,0,2.48.27,3.3,1.88,3.3a5.34,5.34,0,0,0,2-.54Z"/><path class="cls-1" d="M139.84,111.47v6.15h-2.47V103.28h5.31c2.52,0,4.74,1.23,4.74,4a3.92,3.92,0,0,1-2.74,3.63l3.16,6.66h-2.66l-2.88-6.15Zm0-1.74h2c2,0,3.2-.78,3.2-2.32s-.72-2.5-2.7-2.5h-2.48Z"/><path class="cls-1" d="M158,112.17v1.11h-6.68c.06,1.37.18,2.62,2.06,2.62a7,7,0,0,0,3.3-1.06l.75,1.61a8.91,8.91,0,0,1-4.08,1.27c-3.46,0-4.51-1.72-4.51-5.29s1.19-5.16,4.58-5.16c3.16,0,4.58,1.45,4.58,4.9m-6.68-.32h4.22c-.05-2.1-.65-2.75-2.1-2.75s-2.1.61-2.12,2.75"/><path class="cls-1" d="M166,116.89a9.81,9.81,0,0,1-2.62.85c-2.41,0-3.78-1.25-3.78-3.29,0-1.67.93-3,3.51-3h2.63v-1c0-.89-.43-1.37-1.64-1.37a9,9,0,0,0-3.16.84l-.65-1.63a11.49,11.49,0,0,1,3.94-1c2.52,0,3.89.73,3.89,3.35v4.9l.7,1.77-2.05.47Zm-2.48-4c-1.39,0-1.72.77-1.72,1.53s.41,1.56,1.94,1.56a4.56,4.56,0,0,0,2-.57V112.9Z"/><rect class="cls-1" x="171.03" y="103.26" width="2.38" height="14.36"/><polygon class="cls-1" points="181.8 103.28 190.88 103.28 190.88 105.19 184.28 105.19 184.28 109.25 189.85 109.25 189.85 111.12 184.28 111.12 184.28 115.68 191.06 115.68 191.06 117.62 181.8 117.62 181.8 103.28"/><path class="cls-1" d="M192.34,116.49l.95-1.57a7.62,7.62,0,0,0,3.53,1.1c1,0,2-.52,2-1.51,0-.66-.81-1-1.52-1.17-2.68-.76-4.31-1.27-4.31-3.27s1.51-2.78,3.71-2.78a13.41,13.41,0,0,1,4.2.77l-.53,1.65A10.7,10.7,0,0,0,197,109c-.88,0-1.65.33-1.65,1,0,.93,1.94,1.24,2.66,1.44,2.18.6,3.25,1.15,3.25,3s-1.53,3.31-4.36,3.31a9.48,9.48,0,0,1-4.52-1.25"/><path class="cls-1" d="M204.06,115v-6h-1.39v-1.59h1.39v-1.15l1.11-2h1.27v3.11h2.7V109h-2.7v5.41c0,1.13.38,1.41,1.07,1.41a6.75,6.75,0,0,0,2.16-.48l.48,1.71a8.89,8.89,0,0,1-3.17.69c-1.83,0-2.92-1-2.92-2.7"/><path class="cls-1" d="M217.61,116.89a9.6,9.6,0,0,1-2.62.85c-2.4,0-3.77-1.25-3.77-3.29,0-1.67.92-3,3.51-3h2.62v-1c0-.89-.43-1.37-1.63-1.37a9,9,0,0,0-3.17.84l-.65-1.63a11.54,11.54,0,0,1,3.94-1c2.52,0,3.89.73,3.89,3.35v4.9l.71,1.77-2.06.47Zm-2.48-4c-1.39,0-1.72.77-1.72,1.53s.41,1.56,1.94,1.56a4.52,4.52,0,0,0,2-.57V112.9Z"/><path class="cls-1" d="M223.58,115v-6h-1.39v-1.59h1.39v-1.15l1.11-2H226v3.11h2.7V109H226v5.41c0,1.13.38,1.41,1.07,1.41a6.75,6.75,0,0,0,2.16-.48l.48,1.71a8.89,8.89,0,0,1-3.17.69c-1.83,0-2.92-1-2.92-2.7"/><path class="cls-1" d="M240.1,112.17v1.11h-6.68c.06,1.37.18,2.62,2.06,2.62a7.1,7.1,0,0,0,3.31-1.06l.74,1.61a8.91,8.91,0,0,1-4.07,1.27c-3.47,0-4.52-1.72-4.52-5.29s1.19-5.16,4.57-5.16c3.17,0,4.59,1.45,4.59,4.9m-6.68-.32h4.22c0-2.1-.65-2.75-2.1-2.75s-2.1.61-2.12,2.75"/><path class="cls-1" d="M20,71.46s-6.79,0-11.08,0c-1.65,0-2.42,1-2.42,2v3.55H19.16v5.87H6.47V95.91H0V71.61C0,69,.52,67.4,1.71,66.33S4,65.09,6.52,65.09H20Z"/><rect class="cls-1" x="22.36" y="65.09" width="6.47" height="30.82"/><path class="cls-1" d="M127.13,95.91v-18l-4.22,14.46a13.26,13.26,0,0,1-.81,2.45,3.51,3.51,0,0,1-3,1.58,3.34,3.34,0,0,1-3-1.63,12.74,12.74,0,0,1-1-2.45l-4.84-14.65V95.91h-6.52V71.61c0-2.78.1-3.47.53-4.4a4.87,4.87,0,0,1,8-.64c.63.83.63.83,1.54,3.7l5,15.38,4.41-15.29c.77-2.64.87-2.82,1.5-3.7a4.67,4.67,0,0,1,3.78-1.85A4.91,4.91,0,0,1,133,67.35a8.67,8.67,0,0,1,.63,4.16v24.4Z"/><path class="cls-1" d="M154,69.11c-.91-3-2.57-4.57-5-4.57s-4.14,1.57-5,4.52l-7.71,26.85h6.81l1.62-6h8.52l1.61,6h7ZM146.28,84,149,73.59,151.76,84Z"/><path class="cls-1" d="M292.15,69.11c-.91-3-2.57-4.57-5-4.57s-4.14,1.57-5,4.52l-7.71,26.85h6.8l1.62-6h8.52l1.62,6h7ZM284.4,84l2.7-10.4L289.86,84Z"/><path class="cls-1" d="M61.35,65.09c-2.57,0-3.71.23-4.81,1.2s-1.71,3.53-1.71,6.11V77c0,2.59.52,4.21,1.71,5.27s2.24,1.25,4.81,1.25H65c1.66,0,2.43,1,2.43,2v2.33c0,.93-.77,2-2.43,2l-10.36,0V95.8H67.28c2.56,0,3.71-.28,4.8-1.25S73.8,91,73.8,88.43V83.65c0-2.59-.53-4.2-1.72-5.26s-2.24-1.25-4.8-1.25H63.62c-1.65,0-2.42-1-2.42-2V73.08c0-.92.77-2,2.42-2H79.85V95.91h6.47V71.1h6v-6Z"/><path class="cls-1" d="M45.69,83.5h.64c2.58,0,3.72-.28,4.81-1.25s1.71-2.68,1.71-5.26v-5.4c0-2.59-.52-4.2-1.71-5.27s-2.23-1.25-4.81-1.25l-15,0V95.91h6.47V71.41H44c1.65,0,2.42,1,2.42,2V76.3c0,.93-.77,2-2.42,2H42.44l-.48,0A3.77,3.77,0,0,0,38.38,82a3.88,3.88,0,0,0,.43,1.76l6.91,12.08h7.56Z"/><path class="cls-1" d="M243.13,83.5h.64c2.58,0,3.72-.28,4.81-1.25s1.72-2.68,1.72-5.26v-5.4c0-2.59-.53-4.2-1.72-5.27s-2.23-1.25-4.81-1.25l-15,0V95.91h6.47V71.41h6.14c1.65,0,2.42,1,2.42,2V76.3c0,.93-.77,2-2.42,2h-1.52l-.49,0a3.75,3.75,0,0,0-3.13,5.51l6.9,12.08h7.56Z"/><path class="cls-1" d="M221,65H210.13a5,5,0,0,0-5,5.1V90.49a5,5,0,0,0,5,5.1H221a5,5,0,0,0,5-5.1V70.11a5,5,0,0,0-5-5.1M219.7,87.37a2,2,0,0,1-1.94,2h-4.24a2,2,0,0,1-1.94-2V73.29a2,2,0,0,1,1.94-2h4.24a2,2,0,0,1,1.94,2Z"/><path class="cls-1" d="M169.66,88.55a1.28,1.28,0,0,0,1.28,1.28l.42,0h10.81v6H169.7c-4.76,0-6.52-1.81-6.52-6.52V65.09h6.47V88.55Z"/><path class="cls-1" d="M190.56,88.55a1.27,1.27,0,0,0,1.27,1.28l.42,0h10.82v6H190.6c-4.77,0-6.53-1.81-6.53-6.52V65.09h6.47V88Z"/><path class="cls-1" d="M272.54,71.61H261.23A2.21,2.21,0,0,0,259,73.84V87.11a2.21,2.21,0,0,0,2.19,2.22h11.31l0,6.54H258a4.92,4.92,0,0,1-4.86-5V70A4.91,4.91,0,0,1,258,65h14.58Z"/><path class="cls-2" d="M150,16.68a2.31,2.31,0,0,1-2.28-2.35c0-1.12,1.36-2.2,1.58-2.54a2.91,2.91,0,0,0,.41-1.42,3.91,3.91,0,0,0-1.08-2,1.5,1.5,0,0,1-.29-1.93,1.74,1.74,0,0,0,.52-1.81,1.34,1.34,0,0,1,0-1.58c.4-.39.69-.54.69-1s-.45-.56-.45-1S149.28,0,150,0s.87.62.87,1.07-.46.57-.46,1,.29.6.68,1a1.32,1.32,0,0,1,0,1.58,1.77,1.77,0,0,0,.51,1.81,1.48,1.48,0,0,1-.28,1.93,3.88,3.88,0,0,0-1.07,2,2.8,2.8,0,0,0,.4,1.42c.22.34,1.58,1.42,1.58,2.54A2.31,2.31,0,0,1,150,16.68"/><path class="cls-2" d="M174.75,25c-.59,3.68-1.66,8.1-2.25,10.44s-.58,2.57-1.34,3.24a2.07,2.07,0,0,0-.92,2c.08.91.63,1.16.13,1.58s-1.27,1.07-.69,2.08.76,1.34.34,2.18-.69,1.18-1.44,1.08-1.72-.27-1.62-1.16.73-1.77.32-2.48-.84-1.08-.42-1.44.32-1.32-.41-1.32-.82,1-.4,1.32,0,.72-.42,1.44.22,1.59.32,2.48-.78,1-1.53,1.16c-2.83.48-2-2.25-1.17-2.87.6-.46.44-1.48.25-2.11s-.37-.69.05-1.44.14-1.24-.05-1.82a4.7,4.7,0,0,1-.25-2.06c.06-1,.62-5.63.89-7.67.5-3.67,1.18-6.85,2.26-8s3-2.25,4.69-1.92A4.29,4.29,0,0,1,174.75,25M161.11,39.32a1.78,1.78,0,0,0-.48,1.71c.2.62-.07,1-.48,1.38a1.51,1.51,0,0,0-.27,1.78c.33.68.73,1.5.27,2.19a1.68,1.68,0,0,1-1.38.76c-1,.14-2.43-.27-2.32-1.17s.78-1.8.34-2.52-.89-1.08-.45-1.43.35-1.36-.43-1.36-.87,1-.43,1.36,0,.71-.44,1.43.22,1.61.33,2.52-1.14,1.32-2.12,1.38A2.9,2.9,0,0,1,150.61,46a2.36,2.36,0,0,1,.48-2.81c.55-.48.76-1,.48-1.51s-.2-.48.34-1.31.21-1.3-.2-1.92A5.6,5.6,0,0,1,151,36c-.07-.83.07-3,0-7.69s.42-5.62,1.45-7.06a7.71,7.71,0,0,1,5.2-2.46c1.87.09,4.53.54,5.29,3.14s.2,5.9-.21,9.47-.67,5.21-.82,6a4.06,4.06,0,0,1-.82,1.92M149.39,46a2.9,2.9,0,0,1-2.62,1.31c-1-.06-2.25-.48-2.13-1.38s.77-1.8.33-2.52-.89-1.08-.45-1.43.34-1.36-.43-1.36-.88,1-.43,1.36,0,.71-.45,1.43.23,1.61.34,2.52-1.33,1.31-2.32,1.17a1.65,1.65,0,0,1-1.37-.76c-.46-.69-.07-1.51.27-2.19a1.52,1.52,0,0,0-.27-1.78c-.41-.42-.69-.76-.48-1.38a1.78,1.78,0,0,0-.49-1.71,4.16,4.16,0,0,1-.82-1.92c-.13-.76-.41-2.4-.82-6s-1-6.86-.21-9.47,3.43-3.05,5.28-3.14a7.75,7.75,0,0,1,5.22,2.46c1,1.44,1.51,2.4,1.43,7.06s.08,6.86,0,7.69a5.73,5.73,0,0,1-.68,2.46c-.41.62-.75,1.1-.21,1.92s.62.83.35,1.31-.07,1,.47,1.51a2.33,2.33,0,0,1,.49,2.81m-13.8,1.58c-.75-.12-1.61-.28-1.5-1.17s.73-1.77.31-2.47-.84-1.08-.42-1.44.34-1.33-.4-1.33-.83,1-.41,1.33,0,.72-.42,1.44.22,1.58.32,2.47-.89,1.09-1.64,1.17-1-.25-1.45-1.08-.24-1.19.34-2.18-.19-1.66-.69-2.08.05-.67.13-1.58a2.09,2.09,0,0,0-.92-2c-.75-.67-.75-.9-1.35-3.24s-1.65-6.76-2.23-10.44a4.29,4.29,0,0,1,3.65-5.27c1.68-.33,3.6.75,4.69,1.92s1.78,4.35,2.27,8c.26,2,.83,6.67.88,7.67a4.29,4.29,0,0,1-.25,2.06c-.19.58-.49,1.07-.06,1.82s.26.82.06,1.44-.37,1.68.25,2.11c.77.53,1.66,3.35-1.16,2.87m37-29.11a6.61,6.61,0,0,0-6.78,1.36c-.58.42-1.24,1-2.33-.07a7.87,7.87,0,0,0-5.76-2.45,12.55,12.55,0,0,0-6.26,2,2,2,0,0,1-2.89,0,12.56,12.56,0,0,0-6.27-2,7.89,7.89,0,0,0-5.76,2.45c-1.1,1.09-1.74.49-2.33.07a6.61,6.61,0,0,0-6.78-1.36c-4.63,1.42-3.93,6-3.35,8.72s2,7.44,2.6,9.36a4.32,4.32,0,0,1,0,3.35,1.4,1.4,0,0,0,.5,1.67c.42.25.48.83.15,1.42a1.21,1.21,0,0,0,.17,1.63,3.77,3.77,0,0,1,1.68,1.88,29.08,29.08,0,0,1,1.06,4.23h39.56a28.25,28.25,0,0,1,1-4.23c.49-1.17,1.07-1.2,1.55-1.53a1.7,1.7,0,0,0,.31-2c-.34-.59-.27-1.17.15-1.42a1.4,1.4,0,0,0,.5-1.67,5.75,5.75,0,0,1,.12-3.75c.59-1.93,1.88-6.28,2.47-9s1.28-7.3-3.35-8.72"/></g></g></svg>
